<?xml version="1.0" encoding="UTF-8" standalone="no" ?>
<!DOCTYPE svg PUBLIC "-//W3C//DTD SVG 1.1//EN" "http://www.w3.org/Graphics/SVG/1.1/DTD/svg11.dtd">
<svg xmlns="http://www.w3.org/2000/svg" xmlns:xlink="http://www.w3.org/1999/xlink" version="1.1" width="100" height="100" viewBox="0 0 50 50" xml:space="preserve">
<desc>Created with Fabric.js 4.6.0</desc>
<defs>
</defs>
<g transform="matrix(0.07 0 0 0.07 24.99 24.99)" id="5au2hFVGJRE1UTmmMQZZc"  >
<linearGradient id="SVGID_0" gradientUnits="userSpaceOnUse" gradientTransform="matrix(1 0 0 1 -364.75 -364.75)"  x1="-35.7010033663974" y1="689.6332262242278" x2="758.0689938731409" y2="36.30486461915564">
<stop offset="0%" style="stop-color:#D9AFD9;stop-opacity: 1"/>
<stop offset="100%" style="stop-color:#97D9E1;stop-opacity: 1"/>
</linearGradient>
<path style="stroke: rgb(160,215,9); stroke-width: 0; stroke-dasharray: none; stroke-linecap: butt; stroke-dashoffset: 0; stroke-linejoin: miter; stroke-miterlimit: 4; fill: url(#SVGID_0); fill-rule: nonzero; opacity: 1;" vector-effect="non-scaling-stroke"  transform=" translate(0, 0)" d="M -364.7541 -217.18575 C -364.7541 -298.68550000000005 -298.6855 -364.7541 -217.18574999999998 -364.7541 L 220.27385000000004 -364.7541 L 220.27385000000004 -364.7541 C 300.06809000000004 -364.7541 364.75410000000005 -300.06809 364.75410000000005 -220.27384999999998 L 364.75410000000005 229.65007000000003 L 364.75410000000005 229.65007000000003 C 364.75410000000005 304.26596 304.26597000000004 364.7541 229.65007000000006 364.7541 L -226.55482999999995 364.7541 L -226.55482999999995 364.7541 C -302.88017999999994 364.7541 -364.75408999999996 302.88018 -364.75408999999996 226.55483999999998 z" stroke-linecap="round" />
</g>
<g transform="matrix(0.13 0 0 0.13 24.62 25.33)" id="uXBIcFPv9QgcSMo4-pGfS"  >
<linearGradient id="SVGID_1" gradientUnits="userSpaceOnUse" gradientTransform="matrix(1 0 0 1 -98.16 -147.58)"  x1="12.46597715413067" y1="11.89040122873655" x2="149.33512455811777" y2="269.84023618728656">
<stop offset="0%" style="stop-color:#00D0D0;stop-opacity: 1"/>
<stop offset="100%" style="stop-color:#0F4DCC;stop-opacity: 1"/>
</linearGradient>
<path style="stroke: rgb(0,79,174); stroke-width: 2; stroke-dasharray: none; stroke-linecap: butt; stroke-dashoffset: 0; stroke-linejoin: miter; stroke-miterlimit: 4; fill: url(#SVGID_1); fill-rule: nonzero; opacity: 1;" vector-effect="non-scaling-stroke"  transform=" translate(0, 0)" d="M 8.57469 -32.59791 C 58.02641 -32.59791 98.16113 7.76144 98.16113 57.48993 C 98.16113 107.21842000000001 58.0264 147.57777 8.574690000000004 147.57777 C -40.87703 147.57777 -80 109.60291999999998 -80 59.87442999999999 C -80 54.40153999999999 -79.59447 -107.10597000000001 -79.59447 -107.10597000000001 C -79.59447 -112.79409000000001 -81.18552 -118.36881000000001 -84.1878 -123.20007000000001 L -97.93943 -145.32913000000002 C -98.23137 -145.79893 -98.23527 -146.39274000000003 -97.94951 -146.86633000000003 C -97.66375000000001 -147.33992000000003 -97.1366 -147.61330000000004 -96.58488 -147.57404000000002 L -53.037839999999996 -144.47498000000002 C -37.797959999999996 -143.39042 -25.988479999999996 -130.71064 -25.988479999999996 -115.43222000000002 L -25.988479999999996 -25.64057000000001 C -15.351239999999995 -30.12182000000001 -3.6740799999999965 -32.59791000000001 8.574690000000004 -32.59791000000001 z M -31.52591 57.48993 C -31.52591 79.64171 -13.560839999999999 97.61997 8.57469 97.61997 C 30.71022 97.61997 48.675290000000004 79.64170999999999 48.675290000000004 57.489929999999994 C 48.675290000000004 35.33815 30.710220000000003 17.359889999999993 8.574690000000004 17.359889999999993 C -13.560839999999995 17.359889999999993 -31.525909999999996 35.33814999999999 -31.525909999999996 57.489929999999994 z" stroke-linecap="round" />
</g>
</svg>