<svg width="217" height="74" viewBox="0 0 217 74" fill="none" xmlns="http://www.w3.org/2000/svg">
<g clip-path="url(#clip0_0_1)">
<path d="M54.48 0.76123C54.48 0.76123 70.5849 16.6145 70.313 27.1912C70.2053 31.3797 68.6486 36.4923 65.4554 39.0243C60.5852 42.8861 53.3924 43.0679 53.3924 43.0679C53.3924 43.0679 46.852 42.2615 42.6417 38.2113C39.4229 35.1149 38.0856 29.4217 38.9737 24.9235C41.0232 14.5415 54.48 0.76123 54.48 0.76123V0.76123Z" fill="url(#paint0_linear_0_1)"/>
<path d="M70.5413 27.4352C70.4337 31.6237 68.877 36.7363 65.6838 39.2683C62.368 41.8975 57.9757 42.821 55.5096 43.1426L53.3366 43.0854C53.3366 43.0854 49.535 41.549 47.5849 37.225C46.2324 34.2261 46.0041 29.2129 47.5849 25.2287C51.2041 16.1066 62.7701 13.9259 64.6771 12.9592C67.911 17.6785 70.6549 23.0172 70.5413 27.4352V27.4352Z" fill="url(#paint1_linear_0_1)"/>
<path d="M56.7877 23.862C62.3316 23.862 66.8309 28.2956 66.8309 33.7583C66.8309 36.1971 65.9342 38.4307 64.4481 40.1563C60.5037 42.6555 55.6639 43.1903 54.1166 43.3003C49.868 42.1469 46.7445 38.3098 46.7445 33.7583C46.7445 28.2956 51.2438 23.862 56.7877 23.862L56.7877 23.862Z" fill="url(#paint2_linear_0_1)"/>
<path d="M59.1052 39.0247C57.2835 41.5623 54.2999 43.2794 54.2999 43.2794C54.2999 43.2794 50.8526 41.4665 48.8631 38.5563C47.5477 36.6321 47.3298 34.8117 47.4269 32.3711C47.524 29.9306 50.468 26.3344 54.2151 26.3344C57.9621 26.3344 60.3948 29.1362 60.6685 32.5028C60.7951 34.0602 60.6734 36.8403 59.1052 39.0247V39.0247Z" fill="white"/>
<path d="M57.4649 55.8198C57.3368 55.5491 57.4556 55.2275 57.7303 55.1013L58.4681 54.7623C58.7623 54.6271 59.1121 54.7525 59.2493 55.0424L67.5343 72.5497C67.6897 72.8781 67.5455 73.2684 67.2123 73.4215L66.7292 73.6435C66.3529 73.8164 65.9055 73.6559 65.73 73.2851L57.4649 55.8198ZM66.2853 52.7193C66.0532 52.5274 66.0229 52.1864 66.2177 51.9577L66.7477 51.3353C66.9563 51.0903 67.3271 51.0583 67.5758 51.2639L82.5617 63.6546C82.8433 63.8875 82.8801 64.3013 82.6437 64.5788L82.2945 64.9889C82.0275 65.3024 81.5533 65.3433 81.2352 65.0803L66.2853 52.7193ZM73.0892 45.7227C72.7965 45.6455 72.6228 45.349 72.7012 45.0606L72.9146 44.2759C72.9986 43.9669 73.3209 43.7835 73.6345 43.8663L92.5306 48.8554C92.8858 48.9492 93.0965 49.3089 93.0014 49.6589L92.8607 50.176C92.7533 50.5712 92.341 50.8058 91.9399 50.6999L73.0892 45.7227ZM53.4742 57.5991C53.4707 57.4009 53.6309 57.2373 53.8321 57.2339L54.2165 57.2273C54.4493 57.2233 54.6413 57.406 54.6454 57.6354L54.847 69.0197C54.8513 69.263 54.6546 69.4638 54.4077 69.468L54.0341 69.4744C53.8411 69.4778 53.6819 69.3263 53.6785 69.1361L53.4742 57.5991ZM64.0966 55.9771C63.996 55.8054 64.0557 55.5859 64.2299 55.4867L64.5629 55.2973C64.7645 55.1826 65.0223 55.2507 65.1388 55.4494L70.9163 65.31C71.0398 65.5208 70.9665 65.7903 70.7526 65.912L70.429 66.0961C70.2619 66.1912 70.0481 66.1347 69.9516 65.97L64.0966 55.9771ZM71.4254 50.1478C71.2512 50.0487 71.1915 49.8291 71.2921 49.6574L71.4843 49.3293C71.6007 49.1306 71.8586 49.0625 72.0602 49.1772L82.0672 54.8703C82.2811 54.992 82.3544 55.2615 82.2309 55.4723L82.0441 55.7911C81.9476 55.9558 81.7339 56.0123 81.5667 55.9172L71.4254 50.1478ZM42.6059 73.2851C42.4304 73.656 41.9831 73.8164 41.6068 73.6435L41.1143 73.4172C40.7811 73.2641 40.6369 72.8738 40.7923 72.5454L49.0598 55.075C49.197 54.7851 49.5468 54.6597 49.841 54.7949L50.5882 55.1382C50.8629 55.2644 50.9817 55.5861 50.8536 55.8567L42.6059 73.2851ZM27.0867 65.0973C26.7686 65.3603 26.2944 65.3194 26.0275 65.006L25.6782 64.5958C25.4419 64.3183 25.4786 63.9045 25.7603 63.6716L40.7462 51.281C40.9948 51.0753 41.3656 51.1073 41.5743 51.3523L42.1043 51.9747C42.299 52.2034 42.2687 52.5444 42.0366 52.7363L27.0867 65.0973ZM16.3827 50.7166C15.9816 50.8225 15.5694 50.588 15.4619 50.1928L15.3213 49.6756C15.2261 49.3257 15.4369 48.966 15.792 48.8722L34.6881 43.8831C35.0017 43.8003 35.324 43.9837 35.408 44.2926L35.6214 45.0774C35.6999 45.3658 35.5262 45.6622 35.2335 45.7395L16.3827 50.7166ZM38.3704 65.9866C38.2739 66.1514 38.0602 66.2078 37.893 66.1127L37.5694 65.9286C37.3555 65.8069 37.2822 65.5374 37.4057 65.3266L43.1833 55.466C43.2997 55.2673 43.5575 55.1992 43.7592 55.3139L44.0921 55.5034C44.2664 55.6025 44.3261 55.8221 44.2255 55.9938L38.3704 65.9866ZM26.7557 55.9337C26.5886 56.0288 26.3748 55.9723 26.2783 55.8076L26.0915 55.4888C25.968 55.278 26.0413 55.0085 26.2552 54.8868L36.2622 49.1937C36.4639 49.079 36.7217 49.1471 36.8381 49.3458L37.0303 49.6739C37.1309 49.8456 37.0712 50.0651 36.897 50.1643L26.7557 55.9337Z" fill="url(#paint3_radial_0_1)"/>
</g>
<path d="M15.904 38.744H7.008L5.536 43H0.832L8.864 20.632H14.08L22.112 43H17.376L15.904 38.744ZM14.688 35.16L11.456 25.816L8.224 35.16H14.688ZM35.0983 25.016C36.4423 25.016 37.6369 25.3147 38.6823 25.912C39.7276 26.488 40.5383 27.352 41.1143 28.504C41.7116 29.6347 42.0103 31 42.0103 32.6V43H37.5303V33.208C37.5303 31.8 37.1783 30.7227 36.4743 29.976C35.7703 29.208 34.8103 28.824 33.5943 28.824C32.3569 28.824 31.3756 29.208 30.6503 29.976C29.9463 30.7227 29.5943 31.8 29.5943 33.208V43H25.1143V19.32H29.5943V27.48C30.1703 26.712 30.9383 26.1147 31.8983 25.688C32.8583 25.24 33.9249 25.016 35.0983 25.016ZM64.8685 34.072C64.8685 32.28 65.2205 30.6907 65.9245 29.304C66.6498 27.9173 67.6205 26.8507 68.8365 26.104C70.0738 25.3573 71.4498 24.984 72.9645 24.984C74.2872 24.984 75.4392 25.2507 76.4205 25.784C77.4232 26.3173 78.2232 26.9893 78.8205 27.8V25.272H83.3325V43H78.8205V40.408C78.2445 41.24 77.4445 41.9333 76.4205 42.488C75.4178 43.0213 74.2552 43.288 72.9325 43.288C71.4392 43.288 70.0738 42.904 68.8365 42.136C67.6205 41.368 66.6498 40.2907 65.9245 38.904C65.2205 37.496 64.8685 35.8853 64.8685 34.072ZM78.8205 34.136C78.8205 33.048 78.6072 32.12 78.1805 31.352C77.7538 30.5627 77.1778 29.9653 76.4525 29.56C75.7272 29.1333 74.9485 28.92 74.1165 28.92C73.2845 28.92 72.5165 29.1227 71.8125 29.528C71.1085 29.9333 70.5325 30.5307 70.0845 31.32C69.6578 32.088 69.4445 33.0053 69.4445 34.072C69.4445 35.1387 69.6578 36.0773 70.0845 36.888C70.5325 37.6773 71.1085 38.2853 71.8125 38.712C72.5378 39.1387 73.3058 39.352 74.1165 39.352C74.9485 39.352 75.7272 39.1493 76.4525 38.744C77.1778 38.3173 77.7538 37.72 78.1805 36.952C78.6072 36.1627 78.8205 35.224 78.8205 34.136ZM86.556 34.072C86.556 32.28 86.908 30.6907 87.612 29.304C88.3373 27.9173 89.3187 26.8507 90.556 26.104C91.7933 25.3573 93.1693 24.984 94.684 24.984C95.836 24.984 96.9347 25.24 97.98 25.752C99.0253 26.2427 99.8573 26.904 100.476 27.736V19.32H105.02V43H100.476V40.376C99.9213 41.2507 99.1427 41.9547 98.14 42.488C97.1373 43.0213 95.9747 43.288 94.652 43.288C93.1587 43.288 91.7933 42.904 90.556 42.136C89.3187 41.368 88.3373 40.2907 87.612 38.904C86.908 37.496 86.556 35.8853 86.556 34.072ZM100.508 34.136C100.508 33.048 100.295 32.12 99.868 31.352C99.4413 30.5627 98.8653 29.9653 98.14 29.56C97.4147 29.1333 96.636 28.92 95.804 28.92C94.972 28.92 94.204 29.1227 93.5 29.528C92.796 29.9333 92.22 30.5307 91.772 31.32C91.3453 32.088 91.132 33.0053 91.132 34.072C91.132 35.1387 91.3453 36.0773 91.772 36.888C92.22 37.6773 92.796 38.2853 93.5 38.712C94.2253 39.1387 94.9933 39.352 95.804 39.352C96.636 39.352 97.4147 39.1493 98.14 38.744C98.8653 38.3173 99.4413 37.72 99.868 36.952C100.295 36.1627 100.508 35.224 100.508 34.136Z" fill="#292826"/>
<path d="M62.7505 33.752C62.7505 34.392 62.7078 34.968 62.6225 35.48H49.6625C49.7692 36.76 50.2172 37.7627 51.0065 38.488C51.7958 39.2133 52.7665 39.576 53.9185 39.576C55.5825 39.576 56.7665 38.8613 57.4705 37.432H62.3025C61.7905 39.1387 60.8092 40.5467 59.3585 41.656C57.9078 42.744 56.1265 43.288 54.0145 43.288C52.3078 43.288 50.7718 42.9147 49.4065 42.168C48.0625 41.4 47.0065 40.3227 46.2385 38.936C45.4918 37.5493 45.1185 35.9493 45.1185 34.136C45.1185 32.3013 45.4918 30.6907 46.2385 29.304C46.9852 27.9173 48.0305 26.8507 49.3745 26.104C50.7185 25.3573 52.2652 24.984 54.0145 24.984C55.6998 24.984 57.2038 25.3467 58.5265 26.072C59.8705 26.7973 60.9052 27.832 61.6305 29.176C62.3772 30.4987 62.7505 32.024 62.7505 33.752ZM58.1105 32.472C58.0892 31.32 57.6732 30.4027 56.8625 29.72C56.0518 29.016 55.0598 28.664 53.8865 28.664C52.7772 28.664 51.8385 29.0053 51.0705 29.688C50.3238 30.3493 49.8652 31.2773 49.6945 32.472H58.1105Z" fill="#69CF3C"/>
<path d="M122.449 37.739H117.723L116.941 40H114.442L118.709 28.117H121.48L125.747 40H123.231L122.449 37.739ZM121.803 35.835L120.086 30.871L118.369 35.835H121.803ZM136.233 30.582V40H133.836V38.81C133.53 39.218 133.128 39.541 132.629 39.779C132.142 40.0057 131.609 40.119 131.031 40.119C130.294 40.119 129.643 39.966 129.076 39.66C128.509 39.3427 128.062 38.8837 127.733 38.283C127.416 37.671 127.257 36.9457 127.257 36.107V30.582H129.637V35.767C129.637 36.515 129.824 37.093 130.198 37.501C130.572 37.8977 131.082 38.096 131.728 38.096C132.385 38.096 132.901 37.8977 133.275 37.501C133.649 37.093 133.836 36.515 133.836 35.767V30.582H136.233ZM141.352 32.537V37.093C141.352 37.4103 141.426 37.6427 141.573 37.79C141.732 37.926 141.993 37.994 142.355 37.994H143.46V40H141.964C139.958 40 138.955 39.0253 138.955 37.076V32.537H137.833V30.582H138.955V28.253H141.352V30.582H143.46V32.537H141.352ZM149.354 40.153C148.447 40.153 147.631 39.9547 146.906 39.558C146.181 39.15 145.608 38.5777 145.189 37.841C144.781 37.1043 144.577 36.2543 144.577 35.291C144.577 34.3277 144.787 33.4777 145.206 32.741C145.637 32.0043 146.22 31.4377 146.957 31.041C147.694 30.633 148.515 30.429 149.422 30.429C150.329 30.429 151.15 30.633 151.887 31.041C152.624 31.4377 153.202 32.0043 153.621 32.741C154.052 33.4777 154.267 34.3277 154.267 35.291C154.267 36.2543 154.046 37.1043 153.604 37.841C153.173 38.5777 152.584 39.15 151.836 39.558C151.099 39.9547 150.272 40.153 149.354 40.153ZM149.354 38.079C149.785 38.079 150.187 37.977 150.561 37.773C150.946 37.5577 151.252 37.2403 151.479 36.821C151.706 36.4017 151.819 35.8917 151.819 35.291C151.819 34.3957 151.581 33.71 151.105 33.234C150.64 32.7467 150.068 32.503 149.388 32.503C148.708 32.503 148.136 32.7467 147.671 33.234C147.218 33.71 146.991 34.3957 146.991 35.291C146.991 36.1863 147.212 36.8777 147.654 37.365C148.107 37.841 148.674 38.079 149.354 38.079ZM167.709 30.446C168.865 30.446 169.794 30.803 170.497 31.517C171.211 32.2197 171.568 33.2057 171.568 34.475V40H169.188V34.798C169.188 34.0613 169.001 33.5003 168.627 33.115C168.253 32.7183 167.743 32.52 167.097 32.52C166.451 32.52 165.935 32.7183 165.55 33.115C165.176 33.5003 164.989 34.0613 164.989 34.798V40H162.609V34.798C162.609 34.0613 162.422 33.5003 162.048 33.115C161.674 32.7183 161.164 32.52 160.518 32.52C159.861 32.52 159.339 32.7183 158.954 33.115C158.58 33.5003 158.393 34.0613 158.393 34.798V40H156.013V30.582H158.393V31.721C158.699 31.3243 159.09 31.0127 159.566 30.786C160.053 30.5593 160.586 30.446 161.164 30.446C161.901 30.446 162.558 30.6047 163.136 30.922C163.714 31.228 164.162 31.67 164.479 32.248C164.785 31.704 165.227 31.2677 165.805 30.939C166.394 30.6103 167.029 30.446 167.709 30.446ZM173.214 35.257C173.214 34.305 173.401 33.4607 173.775 32.724C174.161 31.9873 174.676 31.4207 175.322 31.024C175.98 30.6273 176.711 30.429 177.515 30.429C178.218 30.429 178.83 30.5707 179.351 30.854C179.884 31.1373 180.309 31.4943 180.626 31.925V30.582H183.023V40H180.626V38.623C180.32 39.065 179.895 39.4333 179.351 39.728C178.819 40.0113 178.201 40.153 177.498 40.153C176.705 40.153 175.98 39.949 175.322 39.541C174.676 39.133 174.161 38.5607 173.775 37.824C173.401 37.076 173.214 36.2203 173.214 35.257ZM180.626 35.291C180.626 34.713 180.513 34.22 180.286 33.812C180.06 33.3927 179.754 33.0753 179.368 32.86C178.983 32.6333 178.569 32.52 178.127 32.52C177.685 32.52 177.277 32.6277 176.903 32.843C176.529 33.0583 176.223 33.3757 175.985 33.795C175.759 34.203 175.645 34.6903 175.645 35.257C175.645 35.8237 175.759 36.3223 175.985 36.753C176.223 37.1723 176.529 37.4953 176.903 37.722C177.289 37.9487 177.697 38.062 178.127 38.062C178.569 38.062 178.983 37.9543 179.368 37.739C179.754 37.5123 180.06 37.195 180.286 36.787C180.513 36.3677 180.626 35.869 180.626 35.291ZM188.119 32.537V37.093C188.119 37.4103 188.192 37.6427 188.34 37.79C188.498 37.926 188.759 37.994 189.122 37.994H190.227V40H188.731C186.725 40 185.722 39.0253 185.722 37.076V32.537H184.6V30.582H185.722V28.253H188.119V30.582H190.227V32.537H188.119ZM193.146 29.46C192.726 29.46 192.375 29.3297 192.092 29.069C191.82 28.797 191.684 28.4627 191.684 28.066C191.684 27.6693 191.82 27.3407 192.092 27.08C192.375 26.808 192.726 26.672 193.146 26.672C193.565 26.672 193.911 26.808 194.183 27.08C194.466 27.3407 194.608 27.6693 194.608 28.066C194.608 28.4627 194.466 28.797 194.183 29.069C193.911 29.3297 193.565 29.46 193.146 29.46ZM194.319 30.582V40H191.939V30.582H194.319ZM200.852 40.153C199.945 40.153 199.129 39.9547 198.404 39.558C197.679 39.15 197.106 38.5777 196.687 37.841C196.279 37.1043 196.075 36.2543 196.075 35.291C196.075 34.3277 196.285 33.4777 196.704 32.741C197.135 32.0043 197.718 31.4377 198.455 31.041C199.192 30.633 200.013 30.429 200.92 30.429C201.827 30.429 202.648 30.633 203.385 31.041C204.122 31.4377 204.7 32.0043 205.119 32.741C205.55 33.4777 205.765 34.3277 205.765 35.291C205.765 36.2543 205.544 37.1043 205.102 37.841C204.671 38.5777 204.082 39.15 203.334 39.558C202.597 39.9547 201.77 40.153 200.852 40.153ZM200.852 38.079C201.283 38.079 201.685 37.977 202.059 37.773C202.444 37.5577 202.75 37.2403 202.977 36.821C203.204 36.4017 203.317 35.8917 203.317 35.291C203.317 34.3957 203.079 33.71 202.603 33.234C202.138 32.7467 201.566 32.503 200.886 32.503C200.206 32.503 199.634 32.7467 199.169 33.234C198.716 33.71 198.489 34.3957 198.489 35.291C198.489 36.1863 198.71 36.8777 199.152 37.365C199.605 37.841 200.172 38.079 200.852 38.079ZM212.73 30.446C213.852 30.446 214.759 30.803 215.45 31.517C216.141 32.2197 216.487 33.2057 216.487 34.475V40H214.107V34.798C214.107 34.05 213.92 33.4777 213.546 33.081C213.172 32.673 212.662 32.469 212.016 32.469C211.359 32.469 210.837 32.673 210.452 33.081C210.078 33.4777 209.891 34.05 209.891 34.798V40H207.511V30.582H209.891V31.755C210.208 31.347 210.611 31.0297 211.098 30.803C211.597 30.565 212.141 30.446 212.73 30.446Z" fill="#292826"/>
<defs>
<linearGradient id="paint0_linear_0_1" x1="39.7314" y1="1.6617" x2="63.8555" y2="43.1163" gradientUnits="userSpaceOnUse">
<stop stop-color="#C1002F"/>
<stop offset="1" stop-color="#FAC400"/>
</linearGradient>
<linearGradient id="paint1_linear_0_1" x1="56.7922" y1="14.8987" x2="62.8121" y2="30.379" gradientUnits="userSpaceOnUse">
<stop stop-color="#CE0120"/>
<stop offset="1" stop-color="#FAC400"/>
</linearGradient>
<linearGradient id="paint2_linear_0_1" x1="49.8825" y1="25.3491" x2="62.6328" y2="43.28" gradientUnits="userSpaceOnUse">
<stop stop-color="#CE0120"/>
<stop offset="1" stop-color="#FEB401"/>
</linearGradient>
<radialGradient id="paint3_radial_0_1" cx="0" cy="0" r="1" gradientUnits="userSpaceOnUse" gradientTransform="translate(54.1613 42.491) scale(47.8057 47.1063)">
<stop stop-color="#F72F3A"/>
<stop offset="1" stop-color="#FFF312"/>
</radialGradient>
<clipPath id="clip0_0_1">
<rect width="79" height="74" fill="white" transform="translate(15)"/>
</clipPath>
</defs>
</svg>

