<svg width="217" height="46" viewBox="0 0 217 46" fill="none" xmlns="http://www.w3.org/2000/svg">
<path d="M54.276 0.439087C54.276 0.439087 72.1096 16.9351 71.8084 27.9405C71.6892 32.2988 69.9654 37.6187 66.4295 40.2533C61.0364 44.2717 53.0716 44.4609 53.0716 44.4609C53.0716 44.4609 45.8292 43.6218 41.1669 39.4074C37.6025 36.1855 36.1218 30.2615 37.1051 25.5809C39.3747 14.778 54.276 0.439087 54.276 0.439087Z" fill="url(#paint0_linear_4_22)"/>
<path d="M72.0613 28.1935C71.9421 32.5517 70.2183 37.8716 66.6824 40.5062C63.0106 43.242 58.1468 44.203 55.4161 44.5376L53.0097 44.4781C53.0097 44.4781 48.8001 42.8795 46.6407 38.3801C45.143 35.2596 44.8902 30.0432 46.6407 25.8975C50.6484 16.4055 63.4559 14.1365 65.5675 13.1306C69.1487 18.0412 72.1871 23.5963 72.0613 28.1935Z" fill="url(#paint1_linear_4_22)"/>
<path d="M56.8314 24.4764C62.9703 24.4764 67.9527 29.0897 67.9527 34.7739C67.9527 37.3115 66.9596 39.6357 65.314 41.4313C60.9462 44.0318 55.5869 44.5883 53.8736 44.7027C49.1688 43.5025 45.7101 39.5099 45.7101 34.7739C45.7101 29.0897 50.6924 24.4764 56.8314 24.4764Z" fill="url(#paint2_linear_4_22)"/>
<path d="M59.3987 40.2538C57.3814 42.8942 54.0776 44.681 54.0776 44.681C54.0776 44.681 50.2603 42.7946 48.0572 39.7663C46.6006 37.7641 46.3593 35.87 46.4668 33.3305C46.5743 30.791 49.8344 27.049 53.9836 27.049C58.1329 27.049 60.8267 29.9644 61.1298 33.4675C61.27 35.0881 61.1352 37.9808 59.3987 40.2538Z" fill="white"/>
<path d="M15.904 40.744H7.008L5.536 45H0.832001L8.864 22.632H14.08L22.112 45H17.376L15.904 40.744ZM14.688 37.16L11.456 27.816L8.224 37.16H14.688Z" fill="#292826"/>
<path d="M35.0983 27.016C36.4423 27.016 37.6369 27.3147 38.6823 27.912C39.7276 28.488 40.5383 29.352 41.1143 30.504C41.7116 31.6347 42.0103 33 42.0103 34.6V45H37.5303V35.208C37.5303 33.8 37.1783 32.7227 36.4743 31.976C35.7703 31.208 34.8102 30.824 33.5942 30.824C32.3569 30.824 31.3756 31.208 30.6503 31.976C29.9463 32.7227 29.5943 33.8 29.5943 35.208V45H25.1143V21.32H29.5943V29.48C30.1703 28.712 30.9383 28.1147 31.8983 27.688C32.8583 27.24 33.9249 27.016 35.0983 27.016Z" fill="#292826"/>
<path d="M62.7505 35.752C62.7505 36.392 62.7078 36.968 62.6225 37.48H49.6625C49.7692 38.76 50.2172 39.7627 51.0065 40.488C51.7958 41.2133 52.7665 41.576 53.9185 41.576C55.5825 41.576 56.7665 40.8613 57.4705 39.432H62.3025C61.7905 41.1387 60.8092 42.5467 59.3585 43.656C57.9078 44.744 56.1265 45.288 54.0145 45.288C52.3078 45.288 50.7718 44.9147 49.4065 44.168C48.0625 43.4 47.0065 42.3227 46.2385 40.936C45.4918 39.5493 45.1185 37.9493 45.1185 36.136C45.1185 34.3013 45.4918 32.6907 46.2385 31.304C46.9852 29.9173 48.0305 28.8507 49.3745 28.104C50.7185 27.3573 52.2652 26.984 54.0145 26.984C55.6998 26.984 57.2038 27.3467 58.5265 28.072C59.8705 28.7973 60.9052 29.832 61.6305 31.176C62.3772 32.4987 62.7505 34.024 62.7505 35.752ZM58.1105 34.472C58.0892 33.32 57.6732 32.4027 56.8625 31.72C56.0518 31.016 55.0598 30.664 53.8865 30.664C52.7772 30.664 51.8385 31.0053 51.0705 31.688C50.3238 32.3493 49.8652 33.2773 49.6945 34.472H58.1105Z" fill="#292826"/>
<path d="M64.8685 36.072C64.8685 34.28 65.2205 32.6907 65.9245 31.304C66.6498 29.9173 67.6205 28.8507 68.8365 28.104C70.0738 27.3573 71.4498 26.984 72.9645 26.984C74.2872 26.984 75.4392 27.2507 76.4205 27.784C77.4232 28.3173 78.2232 28.9893 78.8205 29.8V27.272H83.3325V45H78.8205V42.408C78.2445 43.24 77.4445 43.9333 76.4205 44.488C75.4178 45.0213 74.2552 45.288 72.9325 45.288C71.4392 45.288 70.0738 44.904 68.8365 44.136C67.6205 43.368 66.6498 42.2907 65.9245 40.904C65.2205 39.496 64.8685 37.8853 64.8685 36.072ZM78.8205 36.136C78.8205 35.048 78.6072 34.12 78.1805 33.352C77.7538 32.5627 77.1778 31.9653 76.4525 31.56C75.7272 31.1333 74.9485 30.92 74.1165 30.92C73.2845 30.92 72.5165 31.1227 71.8125 31.528C71.1085 31.9333 70.5325 32.5307 70.0845 33.32C69.6578 34.088 69.4445 35.0053 69.4445 36.072C69.4445 37.1387 69.6578 38.0773 70.0845 38.888C70.5325 39.6773 71.1085 40.2853 71.8125 40.712C72.5378 41.1387 73.3058 41.352 74.1165 41.352C74.9485 41.352 75.7272 41.1493 76.4525 40.744C77.1778 40.3173 77.7538 39.72 78.1805 38.952C78.6072 38.1627 78.8205 37.224 78.8205 36.136Z" fill="#292826"/>
<path d="M86.556 36.072C86.556 34.28 86.908 32.6907 87.612 31.304C88.3373 29.9173 89.3187 28.8507 90.556 28.104C91.7933 27.3573 93.1693 26.984 94.684 26.984C95.836 26.984 96.9347 27.24 97.98 27.752C99.0253 28.2427 99.8573 28.904 100.476 29.736V21.32H105.02V45H100.476V42.376C99.9213 43.2507 99.1427 43.9547 98.14 44.488C97.1373 45.0213 95.9747 45.288 94.652 45.288C93.1587 45.288 91.7933 44.904 90.556 44.136C89.3187 43.368 88.3373 42.2907 87.612 40.904C86.908 39.496 86.556 37.8853 86.556 36.072ZM100.508 36.136C100.508 35.048 100.295 34.12 99.868 33.352C99.4413 32.5627 98.8653 31.9653 98.14 31.56C97.4147 31.1333 96.636 30.92 95.804 30.92C94.972 30.92 94.204 31.1227 93.5 31.528C92.796 31.9333 92.22 32.5307 91.772 33.32C91.3453 34.088 91.132 35.0053 91.132 36.072C91.132 37.1387 91.3453 38.0773 91.772 38.888C92.22 39.6773 92.796 40.2853 93.5 40.712C94.2253 41.1387 94.9933 41.352 95.804 41.352C96.636 41.352 97.4147 41.1493 98.14 40.744C98.8653 40.3173 99.4413 39.72 99.868 38.952C100.295 38.1627 100.508 37.224 100.508 36.136Z" fill="#292826"/>
<path d="M122.449 41.739H117.723L116.941 44H114.442L118.709 32.117H121.48L125.747 44H123.231L122.449 41.739ZM121.803 39.835L120.086 34.871L118.369 39.835H121.803Z" fill="#292826"/>
<path d="M136.233 34.582V44H133.836V42.81C133.53 43.218 133.128 43.541 132.629 43.779C132.142 44.0057 131.609 44.119 131.031 44.119C130.294 44.119 129.643 43.966 129.076 43.66C128.509 43.3427 128.062 42.8837 127.733 42.283C127.416 41.671 127.257 40.9457 127.257 40.107V34.582H129.637V39.767C129.637 40.515 129.824 41.093 130.198 41.501C130.572 41.8977 131.082 42.096 131.728 42.096C132.385 42.096 132.901 41.8977 133.275 41.501C133.649 41.093 133.836 40.515 133.836 39.767V34.582H136.233Z" fill="#292826"/>
<path d="M141.352 36.537V41.093C141.352 41.4103 141.426 41.6427 141.573 41.79C141.732 41.926 141.993 41.994 142.355 41.994H143.46V44H141.964C139.958 44 138.955 43.0253 138.955 41.076V36.537H137.833V34.582H138.955V32.253H141.352V34.582H143.46V36.537H141.352Z" fill="#292826"/>
<path d="M149.354 44.153C148.447 44.153 147.631 43.9547 146.906 43.558C146.181 43.15 145.608 42.5777 145.189 41.841C144.781 41.1043 144.577 40.2543 144.577 39.291C144.577 38.3277 144.787 37.4777 145.206 36.741C145.637 36.0043 146.22 35.4377 146.957 35.041C147.694 34.633 148.515 34.429 149.422 34.429C150.329 34.429 151.15 34.633 151.887 35.041C152.624 35.4377 153.202 36.0043 153.621 36.741C154.052 37.4777 154.267 38.3277 154.267 39.291C154.267 40.2543 154.046 41.1043 153.604 41.841C153.173 42.5777 152.584 43.15 151.836 43.558C151.099 43.9547 150.272 44.153 149.354 44.153ZM149.354 42.079C149.785 42.079 150.187 41.977 150.561 41.773C150.946 41.5577 151.252 41.2403 151.479 40.821C151.706 40.4017 151.819 39.8917 151.819 39.291C151.819 38.3957 151.581 37.71 151.105 37.234C150.64 36.7467 150.068 36.503 149.388 36.503C148.708 36.503 148.136 36.7467 147.671 37.234C147.218 37.71 146.991 38.3957 146.991 39.291C146.991 40.1863 147.212 40.8777 147.654 41.365C148.107 41.841 148.674 42.079 149.354 42.079Z" fill="#292826"/>
<path d="M167.709 34.446C168.865 34.446 169.794 34.803 170.497 35.517C171.211 36.2197 171.568 37.2057 171.568 38.475V44H169.188V38.798C169.188 38.0613 169.001 37.5003 168.627 37.115C168.253 36.7183 167.743 36.52 167.097 36.52C166.451 36.52 165.935 36.7183 165.55 37.115C165.176 37.5003 164.989 38.0613 164.989 38.798V44H162.609V38.798C162.609 38.0613 162.422 37.5003 162.048 37.115C161.674 36.7183 161.164 36.52 160.518 36.52C159.861 36.52 159.339 36.7183 158.954 37.115C158.58 37.5003 158.393 38.0613 158.393 38.798V44H156.013V34.582H158.393V35.721C158.699 35.3243 159.09 35.0127 159.566 34.786C160.053 34.5593 160.586 34.446 161.164 34.446C161.901 34.446 162.558 34.6047 163.136 34.922C163.714 35.228 164.162 35.67 164.479 36.248C164.785 35.704 165.227 35.2677 165.805 34.939C166.394 34.6103 167.029 34.446 167.709 34.446Z" fill="#292826"/>
<path d="M173.214 39.257C173.214 38.305 173.401 37.4607 173.775 36.724C174.161 35.9873 174.676 35.4207 175.322 35.024C175.98 34.6273 176.711 34.429 177.515 34.429C178.218 34.429 178.83 34.5707 179.351 34.854C179.884 35.1373 180.309 35.4943 180.626 35.925V34.582H183.023V44H180.626V42.623C180.32 43.065 179.895 43.4333 179.351 43.728C178.819 44.0113 178.201 44.153 177.498 44.153C176.705 44.153 175.98 43.949 175.322 43.541C174.676 43.133 174.161 42.5607 173.775 41.824C173.401 41.076 173.214 40.2203 173.214 39.257ZM180.626 39.291C180.626 38.713 180.513 38.22 180.286 37.812C180.06 37.3927 179.754 37.0753 179.368 36.86C178.983 36.6333 178.569 36.52 178.127 36.52C177.685 36.52 177.277 36.6277 176.903 36.843C176.529 37.0583 176.223 37.3757 175.985 37.795C175.759 38.203 175.645 38.6903 175.645 39.257C175.645 39.8237 175.759 40.3223 175.985 40.753C176.223 41.1723 176.529 41.4953 176.903 41.722C177.289 41.9487 177.697 42.062 178.127 42.062C178.569 42.062 178.983 41.9543 179.368 41.739C179.754 41.5123 180.06 41.195 180.286 40.787C180.513 40.3677 180.626 39.869 180.626 39.291Z" fill="#292826"/>
<path d="M188.119 36.537V41.093C188.119 41.4103 188.192 41.6427 188.34 41.79C188.498 41.926 188.759 41.994 189.122 41.994H190.227V44H188.731C186.725 44 185.722 43.0253 185.722 41.076V36.537H184.6V34.582H185.722V32.253H188.119V34.582H190.227V36.537H188.119Z" fill="#292826"/>
<path d="M193.146 33.46C192.726 33.46 192.375 33.3297 192.092 33.069C191.82 32.797 191.684 32.4627 191.684 32.066C191.684 31.6693 191.82 31.3407 192.092 31.08C192.375 30.808 192.726 30.672 193.146 30.672C193.565 30.672 193.911 30.808 194.183 31.08C194.466 31.3407 194.608 31.6693 194.608 32.066C194.608 32.4627 194.466 32.797 194.183 33.069C193.911 33.3297 193.565 33.46 193.146 33.46ZM194.319 34.582V44H191.939V34.582H194.319Z" fill="#292826"/>
<path d="M200.852 44.153C199.945 44.153 199.129 43.9547 198.404 43.558C197.679 43.15 197.106 42.5777 196.687 41.841C196.279 41.1043 196.075 40.2543 196.075 39.291C196.075 38.3277 196.285 37.4777 196.704 36.741C197.135 36.0043 197.718 35.4377 198.455 35.041C199.192 34.633 200.013 34.429 200.92 34.429C201.827 34.429 202.648 34.633 203.385 35.041C204.122 35.4377 204.7 36.0043 205.119 36.741C205.55 37.4777 205.765 38.3277 205.765 39.291C205.765 40.2543 205.544 41.1043 205.102 41.841C204.671 42.5777 204.082 43.15 203.334 43.558C202.597 43.9547 201.77 44.153 200.852 44.153ZM200.852 42.079C201.283 42.079 201.685 41.977 202.059 41.773C202.444 41.5577 202.75 41.2403 202.977 40.821C203.204 40.4017 203.317 39.8917 203.317 39.291C203.317 38.3957 203.079 37.71 202.603 37.234C202.138 36.7467 201.566 36.503 200.886 36.503C200.206 36.503 199.634 36.7467 199.169 37.234C198.716 37.71 198.489 38.3957 198.489 39.291C198.489 40.1863 198.71 40.8777 199.152 41.365C199.605 41.841 200.172 42.079 200.852 42.079Z" fill="#292826"/>
<path d="M212.73 34.446C213.852 34.446 214.759 34.803 215.45 35.517C216.141 36.2197 216.487 37.2057 216.487 38.475V44H214.107V38.798C214.107 38.05 213.92 37.4777 213.546 37.081C213.172 36.673 212.662 36.469 212.016 36.469C211.359 36.469 210.837 36.673 210.452 37.081C210.078 37.4777 209.891 38.05 209.891 38.798V44H207.511V34.582H209.891V35.755C210.208 35.347 210.611 35.0297 211.098 34.803C211.597 34.565 212.141 34.446 212.73 34.446Z" fill="#292826"/>
<defs>
<linearGradient id="paint0_linear_4_22" x1="7.83377" y1="1.39367" x2="13.1103" y2="59.7444" gradientUnits="userSpaceOnUse">
<stop stop-color="#C1002F"/>
<stop offset="1" stop-color="#FAC400"/>
</linearGradient>
<linearGradient id="paint1_linear_4_22" x1="93.2279" y1="3.32103" x2="94.928" y2="29.6916" gradientUnits="userSpaceOnUse">
<stop stop-color="#CE0120"/>
<stop offset="1" stop-color="#FAC400"/>
</linearGradient>
<linearGradient id="paint2_linear_4_22" x1="34.5231" y1="3.87009" x2="43.8245" y2="64.7383" gradientUnits="userSpaceOnUse">
<stop stop-color="#CE0120"/>
<stop offset="1" stop-color="#FEB401"/>
</linearGradient>
</defs>
</svg>
